<svg width="667" height="667" viewBox="0 0 667 667" fill="none" xmlns="http://www.w3.org/2000/svg">
<g clip-path="url(#clip0_2_5)">
<path d="M294 1.60004C220.667 9.8667 150.667 43.8667 97.3333 97.3334C43.0666 151.467 9.59998 221.067 1.46665 296.267C-0.400016 312.933 -0.400016 353.733 1.46665 370.4C9.59998 445.6 43.0666 515.2 97.3333 569.333C137.6 609.733 186 638.533 239.467 654C254.8 658.4 280.267 663.6 294.4 665.067L305.333 666.133V499.733V333.333H219.2H132.933L133.867 320.533C136.4 284.8 147.6 251.733 167.733 221.333C176.933 207.333 199.6 183.733 214.533 172.667C226.533 163.6 248.8 151.467 263.067 146C293.2 134.667 329.067 130.8 360.667 135.333C382.933 138.533 394 141.867 424 154.8C443.2 163.067 477.067 192 494.133 214.667C510.8 236.667 524.533 268.4 530.267 298C533.467 314.667 533.467 352 530.267 368.667C524.533 398.267 510.8 430 494.133 452C482.933 467.067 459.333 489.6 445.333 498.933C432.667 507.2 415.6 516.133 402.8 520.933C392.267 524.933 369.867 530.667 365.067 530.667H361.333V598.4V666.267L376.4 664.4C424.533 658.533 473.2 640.8 515.333 613.6C554.267 588.533 594.667 547.067 618.267 508C643.867 465.467 660.133 418 665.2 370.4C667.067 353.733 667.067 312.933 665.2 296.267C657.067 221.067 623.467 151.467 569.333 97.3334C515.2 43.0667 445.6 9.60004 370.4 1.4667C355.067 -0.266631 309.2 -0.133298 294 1.60004ZM249.333 452.133V514.8L237.333 508.533C220.667 499.733 205.6 488 189.2 471.067C174 455.333 163.6 440.8 154.267 422C149.333 412.133 141.333 392.267 141.333 389.867C141.333 389.6 165.6 389.333 195.333 389.333H249.333V452.133Z" fill="#2D93AD"/>
</g>
<defs>
<clipPath id="clip0_2_5">
<rect width="666.667" height="666.667" fill="white"/>
</clipPath>
</defs>
</svg>
