<svg width="685" height="640" viewBox="0 0 685 640" fill="none" xmlns="http://www.w3.org/2000/svg">
<g style="mix-blend-mode:difference">
<rect x="456.5" y="541.5" width="83.6917" height="83.6917" rx="7.5" fill="#151515" stroke="#1F1F1F"/>
<path d="M468.511 582.865V612.218H527.218V553.511H468.511V582.865ZM515.82 580.516C517.226 580.843 518.504 581.578 519.492 582.63C520.037 583.196 520.51 583.827 520.901 584.508C520.901 584.584 518.365 586.298 516.82 587.256C516.764 587.294 516.538 587.049 516.289 586.678C516.007 586.192 515.606 585.784 515.124 585.494C514.642 585.204 514.094 585.041 513.532 585.02C511.752 584.898 510.606 585.833 510.616 587.369C510.601 587.751 510.689 588.13 510.869 588.468C511.259 589.28 511.987 589.764 514.27 590.75C518.473 592.558 520.272 593.751 521.39 595.447C522.639 597.325 522.916 600.359 522.071 602.604C521.131 605.046 518.83 606.704 515.575 607.254C514.089 607.424 512.587 607.408 511.104 607.207C508.842 606.84 506.754 605.762 505.144 604.131C504.604 603.534 503.552 601.98 503.618 601.867C503.789 601.74 503.97 601.625 504.158 601.524L506.318 600.284L508.005 599.307L508.357 599.829C508.951 600.679 509.708 601.404 510.583 601.961C512.462 602.947 515.026 602.811 516.294 601.67C516.72 601.251 516.985 600.697 517.044 600.103C517.104 599.509 516.953 598.914 516.618 598.42C516.148 597.767 515.209 597.217 512.584 596.071C509.554 594.766 508.249 593.958 507.056 592.671C506.311 591.822 505.761 590.82 505.445 589.736C505.209 588.497 505.174 587.228 505.342 585.978C505.966 583.053 508.159 581.01 511.363 580.404C512.846 580.22 514.348 580.261 515.82 580.526V580.516ZM502.04 582.977V585.382H494.417V607.094H489.012V585.377H481.37V583.029C481.35 582.221 481.372 581.412 481.436 580.606C481.464 580.568 486.133 580.549 491.769 580.559H502.012L502.04 582.977Z" fill="#2D93AD"/>
</g>
<rect x="381.015" y="26.485" width="83.6917" height="83.6917" rx="7.5" fill="#151515" stroke="#1F1F1F"/>
<g clip-path="url(#clip0_3_2)">
<path d="M434.635 75.9098C434.996 75.688 435.402 75.4662 435.763 75.2444C438.289 73.115 437.387 69.2556 433.102 63.8436C433.192 66.5496 433.643 69.3444 434.094 72.3165C434.274 73.4699 434.455 74.6677 434.635 75.9098ZM410.229 86.2015C411.673 92.2789 415.327 95.5617 419.477 96.9368C421.778 97.3361 424.079 97.2474 426.38 96.7594C426.741 96.582 427.056 96.3601 427.372 96.1383C428.274 95.5617 429.041 94.8962 429.763 94.2308C426.831 92.9887 423.853 90.5932 421.056 87.7541C418.891 87.6211 416.771 87.3993 414.921 87.1331C413.117 86.9556 411.583 86.6451 410.229 86.2015ZM409.598 57.5887L409.508 58.2098C408.876 61.7143 408.831 64.8639 409.327 67.6143C409.823 64.3316 410.5 60.9601 411.447 57.7218C411.583 57.2338 411.718 56.7015 411.898 56.1692H411.944C412.665 53.9511 413.477 51.8218 414.425 49.8256C412.62 52.1767 411.041 54.794 409.598 57.5887Z" fill="#2D93AD"/>
<path d="M409.282 90.9925C410.861 92.9444 412.665 94.3639 414.65 95.3842C412.124 93.3436 410.139 90.2827 409.237 85.891C407.523 85.2699 406.169 84.4271 405.132 83.3624C405.853 86.2015 407.207 88.8188 409.282 90.9925ZM409.011 70.1429C408.199 67.5256 407.929 64.509 408.199 61.0932C407.703 62.1135 407.252 63.2226 406.756 64.3316C404.726 70.1429 403.823 76.176 404.68 81.4993C405.628 82.9188 407.026 84.0722 409.011 84.8707C408.38 81.4549 408.335 76.0429 409.011 70.1429ZM410.004 85.1369C410.004 85.1812 410.004 85.1812 410.004 85.1369C411.447 85.6692 413.071 86.0241 415.011 86.2459C416.59 86.5121 418.305 86.6895 420.109 86.8226C416.365 82.7857 413.071 78.0391 410.951 74.1354C410.455 73.4256 410.049 72.6714 409.688 71.9173C409.192 77.3293 409.327 82.1647 410.004 85.1369ZM433.192 72.4053C432.695 69.0782 432.154 65.7068 432.154 62.5128C426.425 57.2782 420.876 51.6887 421.102 42.6835C420.921 42.8166 420.741 42.9496 420.605 43.0827C419.613 43.9256 418.62 44.8572 417.673 45.8775C415.643 48.7166 414.019 52.3541 412.756 56.3023C412.034 61.4481 417.086 71.5181 423.808 79.2369C427.056 79.1038 430.485 78.1278 433.778 76.3534C433.598 75.0669 433.417 73.7361 433.192 72.4053ZM437.703 90.0166C436.53 89.7948 435.357 89.3955 434.184 88.8632C433.598 90.682 432.65 92.3677 431.297 93.9203C431.793 94.0534 432.244 94.1865 432.695 94.2308C434.59 93.1218 436.305 91.6579 437.703 90.0166Z" fill="#2D93AD"/>
<path d="M422.004 42.018C421.508 50.6684 426.56 56.1692 432.064 61.182C427.237 54.8827 424.44 51.112 424.44 40.5541C423.673 40.9534 422.861 41.4414 422.004 42.018ZM431.523 87.3549C429.132 87.7098 426.65 87.8429 424.214 87.8429C423.583 87.8429 422.906 87.8429 422.274 87.7985C424.891 90.3714 427.688 92.5008 430.395 93.5654C431.838 92.0128 432.786 90.2827 433.372 88.4195C432.741 88.109 432.109 87.7541 431.523 87.3549ZM430.44 86.6451C429.538 86.0241 428.726 85.3587 427.959 84.6932C426.38 83.3181 424.846 81.8098 423.402 80.1684C420.199 80.2128 417.222 79.4586 414.786 77.906C414.425 77.6842 414.064 77.418 413.748 77.1519C415.823 80.3902 418.485 83.9391 421.372 86.9113C424.305 87.0444 427.462 87 430.44 86.6451ZM434.771 86.7338C434.68 87.1774 434.59 87.5767 434.455 88.0203C435.718 88.6414 437.026 89.085 438.335 89.218C439.462 87.7098 440.365 86.0241 440.906 84.2053C439.237 85.3143 437.117 86.1571 434.771 86.7338Z" fill="#2D93AD"/>
<path d="M415.282 77.1519C417.402 78.4827 419.929 79.1925 422.635 79.2812C417.086 72.8045 412.801 64.9083 411.944 59.3188C410.906 63.2669 410.545 65.7068 409.959 69.788V69.8767C410.365 70.897 410.906 72.1391 411.628 73.4699C412.575 74.9782 413.793 76.2203 415.282 77.1519ZM433.914 77.3293C430.846 78.9707 427.643 79.9022 424.575 80.1241C425.883 81.5436 427.192 82.8744 428.545 84.0278C429.492 84.8707 430.575 85.7135 431.748 86.4677C432.515 86.3346 433.237 86.2015 433.959 86.0684C434.41 83.2737 434.274 80.3459 433.914 77.3293ZM434.906 85.8022C437.432 85.1368 439.643 84.2053 441.267 82.8744C441.944 79.8135 441.718 76.4865 440.229 72.9376C438.921 70.7639 437.658 68.8564 436.485 67.1707C438.65 71.0744 438.605 73.9135 436.305 75.8654L436.259 75.9098C435.763 76.2203 435.267 76.5308 434.726 76.8413C435.132 79.9022 435.312 82.9632 434.906 85.8022Z" fill="#2D93AD"/>
</g>
<rect x="533.406" y="166.034" width="83.6917" height="83.6917" rx="7.5" fill="#151515" stroke="#1F1F1F"/>
<path fill-rule="evenodd" clip-rule="evenodd" d="M541.043 205.252C540.9 205.252 540.865 205.185 540.936 205.086L541.682 204.187C541.753 204.087 541.931 204.021 542.073 204.021H554.762C554.905 204.021 554.94 204.121 554.869 204.221L554.265 205.086C554.194 205.185 554.016 205.285 553.91 205.285L541.043 205.252ZM535.675 208.312C535.533 208.312 535.498 208.246 535.569 208.146L536.315 207.248C536.386 207.148 536.564 207.081 536.706 207.081H552.914C553.056 207.081 553.127 207.181 553.092 207.281L552.807 208.079C552.772 208.213 552.629 208.279 552.487 208.279L535.675 208.312ZM544.276 211.372C544.134 211.372 544.099 211.273 544.17 211.173L544.668 210.341C544.739 210.241 544.881 210.142 545.024 210.142H552.131C552.274 210.142 552.345 210.241 552.345 210.375L552.275 211.173C552.275 211.306 552.132 211.406 552.025 211.406L544.276 211.372ZM581.171 204.653C578.931 205.186 577.403 205.585 575.2 206.116C574.666 206.25 574.631 206.283 574.169 205.784C573.635 205.219 573.244 204.852 572.498 204.52C570.259 203.489 568.09 203.788 566.065 205.019C563.648 206.483 562.404 208.645 562.439 211.339C562.474 214 564.43 216.196 567.238 216.562C569.655 216.861 571.681 216.063 573.28 214.367C573.6 214 573.884 213.601 574.24 213.135H567.38C566.634 213.135 566.456 212.703 566.705 212.138C567.167 211.106 568.019 209.377 568.517 208.512C568.624 208.312 568.873 207.979 569.406 207.979H582.343C582.273 208.878 582.273 209.776 582.13 210.674C581.739 213.069 580.78 215.265 579.216 217.194C576.656 220.354 573.316 222.316 569.086 222.849C565.603 223.281 562.368 222.649 559.525 220.653C556.895 218.79 555.402 216.329 555.011 213.269C554.549 209.643 555.686 206.383 558.032 203.522C560.555 200.429 563.897 198.466 567.984 197.767C571.325 197.202 574.524 197.568 577.403 199.397C579.287 200.561 580.637 202.158 581.526 204.087C581.739 204.387 581.597 204.553 581.17 204.653L581.171 204.653Z" fill="#2D93AD"/>
<path d="M592.935 223.049C589.701 222.982 586.751 222.117 584.263 220.121C582.166 218.425 580.851 216.262 580.424 213.701C579.785 209.942 580.886 206.615 583.303 203.655C585.898 200.461 589.026 198.798 593.256 198.1C596.881 197.501 600.293 197.834 603.385 199.796C606.193 201.593 607.934 204.021 608.396 207.214C609.001 211.705 607.615 215.364 604.309 218.491C601.963 220.72 599.084 222.117 595.779 222.749C594.819 222.915 593.859 222.949 592.935 223.049ZM601.395 209.61C601.359 209.177 601.359 208.844 601.288 208.512C600.649 205.219 597.414 203.356 594.037 204.088C590.732 204.786 588.599 206.749 587.817 209.876C587.178 212.47 588.528 215.098 591.087 216.162C593.042 216.961 594.997 216.861 596.881 215.963C599.689 214.599 601.217 212.47 601.395 209.61Z" fill="#2D93AD"/>
<rect x="67.2707" y="372.951" width="83.6917" height="83.6917" rx="7.5" fill="#151515" stroke="#1F1F1F"/>
<g clip-path="url(#clip1_3_2)">
<path d="M109.117 421.245C112.146 421.245 114.602 418.789 114.602 415.759C114.602 412.73 112.146 410.274 109.117 410.274C106.087 410.274 103.631 412.73 103.631 415.759C103.631 418.789 106.087 421.245 109.117 421.245Z" fill="#2D93AD"/>
<path d="M129.953 406.713C128.894 406.328 127.787 405.943 126.632 405.606C126.921 404.451 127.162 403.296 127.354 402.189C128.365 395.838 127.258 391.362 124.178 389.63C123.264 389.101 122.253 388.86 121.099 388.86C117.73 388.86 113.447 391.362 109.117 395.549C104.786 391.362 100.503 388.86 97.1346 388.86C95.9797 388.86 94.9692 389.101 94.0549 389.63C90.9752 391.411 89.8684 395.886 90.879 402.189C91.0714 403.296 91.312 404.451 91.6008 405.606C90.4459 405.943 89.3391 406.28 88.2805 406.713C82.2654 409.023 78.9932 412.199 78.9932 415.759C78.9932 419.32 82.3135 422.496 88.2805 424.806C89.3391 425.191 90.4459 425.576 91.6008 425.913C91.312 427.068 91.0714 428.223 90.879 429.329C89.8684 435.681 90.9752 440.156 94.0549 441.889C94.9692 442.418 95.9797 442.659 97.1346 442.659C100.551 442.659 104.834 440.156 109.117 435.97C113.447 440.156 117.73 442.659 121.099 442.659C122.253 442.659 123.264 442.418 124.178 441.889C127.258 440.108 128.365 435.633 127.354 429.329C127.162 428.223 126.921 427.068 126.632 425.913C127.787 425.576 128.894 425.239 129.953 424.806C135.968 422.496 139.24 419.32 139.24 415.759C139.24 412.199 135.968 409.023 129.953 406.713ZM122.831 392.036C124.804 393.191 125.477 396.752 124.659 401.805C124.515 402.815 124.274 403.874 123.986 404.98C121.483 404.403 118.837 404.018 116.046 403.777C114.41 401.468 112.726 399.399 111.041 397.522C114.602 394.009 118.211 391.603 121.147 391.603C121.772 391.603 122.35 391.747 122.831 392.036ZM117.441 420.571C116.575 422.111 115.565 423.651 114.506 425.191C112.726 425.335 110.945 425.383 109.117 425.383C107.24 425.383 105.459 425.335 103.727 425.191C102.668 423.651 101.706 422.111 100.84 420.571C99.9256 418.983 99.0594 417.347 98.2895 415.759C99.0594 414.171 99.9256 412.535 100.84 410.947C101.706 409.408 102.717 407.868 103.775 406.328C105.556 406.183 107.336 406.135 109.165 406.135C111.041 406.135 112.822 406.183 114.554 406.328C115.613 407.868 116.575 409.408 117.441 410.947C118.356 412.535 119.222 414.171 119.992 415.759C119.174 417.347 118.356 418.935 117.441 420.571ZM121.435 418.983C122.157 420.668 122.735 422.304 123.264 423.94C121.628 424.325 119.895 424.614 118.067 424.854C118.644 423.94 119.27 422.977 119.799 421.967C120.377 420.956 120.906 419.946 121.435 418.983ZM109.117 432.024C107.962 430.773 106.855 429.426 105.796 428.03C106.903 428.078 108.01 428.126 109.117 428.126C110.223 428.126 111.33 428.078 112.437 428.03C111.378 429.426 110.271 430.773 109.117 432.024ZM100.166 424.806C98.3376 424.565 96.6053 424.277 94.9692 423.892C95.4985 422.304 96.0759 420.62 96.7978 418.935C97.3271 419.898 97.8564 420.908 98.4338 421.871C99.0113 422.929 99.5887 423.844 100.166 424.806ZM96.7978 412.535C96.0759 410.851 95.4985 409.215 94.9692 407.579C96.6053 407.194 98.3376 406.905 100.166 406.665C99.5887 407.579 98.9632 408.541 98.4338 409.552C97.8564 410.562 97.3271 411.573 96.7978 412.535ZM109.117 399.495C110.271 400.746 111.378 402.093 112.437 403.489C111.33 403.441 110.223 403.392 109.117 403.392C108.01 403.392 106.903 403.441 105.796 403.489C106.855 402.093 107.962 400.746 109.117 399.495ZM119.799 409.6L118.067 406.713C119.895 406.953 121.628 407.242 123.264 407.627C122.735 409.215 122.157 410.899 121.435 412.583C120.906 411.573 120.377 410.562 119.799 409.6ZM93.5737 401.805C92.7556 396.752 93.4293 393.191 95.4023 392.036C95.8835 391.747 96.4609 391.603 97.0865 391.603C99.9737 391.603 103.583 393.961 107.192 397.522C105.508 399.35 103.823 401.468 102.187 403.777C99.3962 404.018 96.7496 404.451 94.2474 404.98C93.9587 403.874 93.7662 402.815 93.5737 401.805ZM81.688 415.759C81.688 413.498 84.4308 411.092 89.2429 409.311C90.2053 408.926 91.2639 408.589 92.3226 408.301C93.0925 410.707 94.0549 413.257 95.2098 415.808C94.0549 418.358 93.0444 420.86 92.3226 423.266C85.682 421.341 81.688 418.454 81.688 415.759ZM95.4023 439.483C93.4293 438.328 92.7556 434.767 93.5737 429.714C93.7181 428.704 93.9587 427.645 94.2474 426.538C96.7496 427.116 99.3962 427.501 102.187 427.741C103.823 430.051 105.508 432.12 107.192 433.997C103.631 437.51 100.022 439.916 97.0865 439.916C96.4609 439.916 95.8835 439.771 95.4023 439.483ZM124.659 429.714C125.477 434.767 124.804 438.328 122.831 439.483C122.35 439.771 121.772 439.916 121.147 439.916C118.259 439.916 114.65 437.558 111.041 433.997C112.726 432.168 114.41 430.051 116.046 427.741C118.837 427.501 121.483 427.068 123.986 426.538C124.274 427.645 124.467 428.704 124.659 429.714ZM128.99 422.208C128.028 422.592 126.969 422.929 125.911 423.218C125.141 420.812 124.178 418.262 123.023 415.711C124.178 413.161 125.189 410.659 125.911 408.253C132.551 410.177 136.545 413.065 136.545 415.759C136.545 418.021 133.754 420.427 128.99 422.208Z" fill="#2D93AD"/>
</g>
<rect x="525.376" y="342.154" width="83.6917" height="83.6917" rx="7.5" fill="#151515" stroke="#1F1F1F"/>
<path d="M590.646 367.8L569.404 355.479C568.066 354.716 566.313 354.716 564.964 355.479L543.556 367.8C542.176 368.594 541.237 370.087 541.237 371.685V396.294C541.237 397.891 542.195 399.385 543.576 400.184L549.221 403.402C551.928 404.736 552.678 404.736 553.91 404.736C557.921 404.736 560.003 402.311 560.003 398.082V373.786C560.004 373.443 560.218 372.932 559.881 372.932H557.175C556.833 372.932 556.154 373.443 556.154 373.786V398.081C556.154 399.956 554.414 401.822 551.245 400.237L545.412 396.863C545.209 396.752 545.086 396.529 545.086 396.294V371.685C545.086 371.453 545.309 371.22 545.515 371.101L566.87 358.801C566.975 358.745 567.092 358.716 567.211 358.716C567.329 358.716 567.446 358.745 567.551 358.801L588.706 371.098C588.909 371.22 588.876 371.445 588.876 371.685V396.294C588.876 396.529 588.921 396.758 588.721 396.871L567.484 409.178C567.302 409.287 567.065 409.287 566.866 409.178L561.42 405.93C561.256 405.835 561.058 405.801 560.9 405.889C559.387 406.747 559.106 406.861 557.686 407.353C557.336 407.475 556.821 407.686 557.883 408.282L565.003 412.494C565.683 412.887 566.455 413.094 567.24 413.094C568.028 413.095 568.802 412.888 569.485 412.494L590.646 400.184C592.028 399.379 592.726 397.891 592.726 396.294V371.685C592.726 370.087 592.027 368.598 590.646 367.8ZM573.827 392.395C568.184 392.395 566.942 390.838 566.527 388.032C566.478 387.73 566.222 387.368 565.914 387.368H563.157C562.816 387.368 562.541 387.782 562.541 388.122C562.541 391.715 564.495 396.068 573.827 396.068C580.582 396.068 584.456 393.443 584.456 388.797C584.456 384.191 581.344 382.982 574.793 382.115C568.17 381.24 567.498 380.798 567.498 379.246C567.498 377.967 568.067 376.261 572.971 376.261C577.352 376.261 578.967 377.202 579.631 380.155C579.688 380.432 579.942 380.632 580.228 380.632H582.997C583.167 380.632 583.33 380.563 583.449 380.441C583.565 380.31 583.626 380.146 583.611 379.97C583.181 374.884 579.803 372.514 572.97 372.514C566.892 372.514 563.266 375.081 563.266 379.383C563.266 384.05 566.874 385.34 572.708 385.917C579.688 386.601 580.231 387.621 580.231 388.994C580.231 391.379 578.317 392.395 573.827 392.395Z" fill="#2D93AD"/>
<rect x="115.391" y="81.3421" width="83.6917" height="83.6917" rx="7.5" fill="#151515" stroke="#1F1F1F"/>
<g clip-path="url(#clip2_3_2)">
<path fill-rule="evenodd" clip-rule="evenodd" d="M144.204 103.734C144.646 103.929 145.128 103.899 145.59 103.955C149.11 104.382 151.964 106.08 154.442 108.52C156.467 110.513 158.218 112.748 160.072 114.892C161.59 116.647 163.217 118.28 165.191 119.531C167.274 120.85 169.538 121.584 172.009 121.647C172.097 121.649 172.184 121.653 172.271 121.659C172.279 121.659 172.284 121.68 172.312 121.732C171.393 122.37 170.394 122.84 169.303 123.097C166.837 123.678 164.608 123.187 162.656 121.547C162.111 121.089 161.587 120.604 161.029 120.162C160.154 119.469 159.156 119.107 158.028 119.241C156.444 119.431 155.583 120.629 155.951 122.186C156.526 124.619 157.921 126.524 159.87 128.045C161.973 129.686 164.387 130.58 167.007 130.95C169.606 131.315 172.193 131.311 174.736 130.546C174.903 130.496 175.066 130.477 175.148 130.663C175.225 130.841 175.032 130.874 174.946 130.945C174.346 131.428 173.752 131.918 173.134 132.378C170.897 134.036 168.384 134.992 165.611 135.196C163.601 135.342 161.848 134.642 160.293 133.395C159.068 132.414 158.114 131.18 157.108 129.995C156.27 129.009 155.44 128.017 154.596 127.037C154.073 126.43 153.514 125.858 152.852 125.397C151.808 124.673 150.665 124.426 149.415 124.677C147.711 125.018 146.781 126.43 147.239 128.117C148.234 131.774 150.558 134.054 154.318 134.798C154.424 134.819 154.556 134.78 154.641 134.941C152.699 135.338 150.799 135.238 148.935 134.626C145.175 133.392 142.14 131.242 140.293 127.642C139.139 125.394 138.651 122.973 138.532 120.466C138.455 118.855 138.515 117.235 138.266 115.635C137.97 113.745 137.517 111.905 136.417 110.291C135.178 108.472 133.471 107.543 131.255 107.588C130.994 107.593 130.733 107.589 130.464 107.589C130.462 107.407 130.612 107.373 130.704 107.304C132.548 105.921 134.681 105.169 136.859 104.528C138.087 104.167 139.348 103.955 140.621 103.823C140.714 103.814 140.832 103.859 140.888 103.734H144.204ZM137.98 106.433C138.453 106.933 138.951 107.281 139.592 107.376C140.378 107.493 141.191 107.063 141.458 106.402C141.645 105.942 141.622 105.91 141.142 105.948C140.882 105.968 140.621 105.981 140.362 106.01C139.576 106.097 138.792 106.195 137.98 106.433Z" fill="#2D93AD"/>
<path fill-rule="evenodd" clip-rule="evenodd" d="M195.694 134.367C195.125 134.596 194.595 134.915 193.968 135.006C192.452 135.226 191.081 134.946 189.917 133.898C189.702 133.705 189.482 133.512 189.288 133.298C188.336 132.25 187.158 131.668 185.749 131.543C185.639 131.533 185.529 131.502 185.403 131.478C186.771 130.271 189.135 130.036 190.86 130.916C191.571 131.279 192.166 131.785 192.698 132.363C193.531 133.269 194.513 133.926 195.694 134.278V134.367ZM173.003 148.417C172.842 148.247 172.61 148.27 172.412 148.205C171.269 147.827 170.308 147.183 169.487 146.309C167.908 144.627 167.149 144.115 165.095 143.306C165.153 143.175 165.272 143.19 165.382 143.188C166.388 143.159 167.384 143.23 168.363 143.475C170.183 143.931 171.585 144.968 172.525 146.591C172.897 147.234 173.328 147.795 173.963 148.186C174.051 148.242 174.13 148.303 174.139 148.417L173.003 148.417ZM170.113 142.607C169.485 142.446 168.898 142.304 168.317 142.143C166.41 141.617 164.489 141.739 162.564 142C161.572 142.134 160.581 142.288 159.585 142.391C156.549 142.704 153.731 141.978 151.093 140.507C148.464 139.04 146.133 137.216 144.36 134.744C144.225 134.556 144.099 134.362 143.97 134.168C143.93 134.108 143.897 134.044 143.852 133.966C144.066 133.874 144.19 134.039 144.325 134.113C145.734 134.891 147.115 135.719 148.655 136.233C151.374 137.139 154.063 137.168 156.741 136.073C158.032 135.545 159.335 135.466 160.611 136.145C160.73 136.209 160.888 136.236 160.947 136.408C160.384 136.558 159.826 136.692 159.277 136.857C158.797 137.002 158.391 137.248 158.35 137.822C158.315 138.302 158.581 138.65 159.188 138.914C160.425 139.45 161.735 139.585 163.063 139.605C164.587 139.629 166.07 139.838 167.477 140.466C168.281 140.825 168.989 141.326 169.67 141.87C169.888 142.044 170.049 142.258 170.113 142.607ZM186.642 122.688C186.515 122.421 186.443 122.265 186.368 122.111C185.174 119.636 183.169 118.702 180.515 119.419C179.299 119.748 178.113 120.214 176.853 120.356C170.826 121.032 165.607 119.487 161.564 114.746C161.452 114.614 161.198 114.423 161.311 114.305C161.504 114.103 161.654 114.411 161.796 114.511C164.888 116.698 168.305 117.723 172.097 117.426C173.801 117.291 175.432 116.825 177.063 116.341C178.504 115.914 179.964 115.614 181.483 115.923C184.783 116.595 186.806 119.187 186.642 122.688ZM171.529 135.593C171.587 135.568 171.624 135.547 171.663 135.535C173.156 135.078 174.315 134.126 175.379 133.034C176.423 131.964 177.397 130.824 178.529 129.838C180.934 127.741 183.692 127.127 186.769 127.823C187.537 127.997 188.175 128.365 188.736 128.885C188.125 128.838 187.584 128.824 187.05 128.751C185.964 128.602 185.081 128.97 184.347 129.747C183.759 130.37 183.177 130.999 182.602 131.635C180.503 133.958 177.823 135.099 174.775 135.499C173.852 135.619 172.929 135.711 171.995 135.685C171.861 135.683 171.713 135.731 171.529 135.593ZM185.309 126.172C184.777 126.286 184.378 126.105 183.979 126.04C181.498 125.639 179.214 126.035 177.06 127.406C173.789 129.487 170.222 129.83 166.502 128.918C166.054 128.808 165.604 128.65 165.143 128.284C165.665 128.254 166.066 128.372 166.47 128.431C168.351 128.706 170.035 128.191 171.588 127.162C172.851 126.325 174.157 125.568 175.592 125.073C178.383 124.113 181.161 123.97 183.895 125.29C184.364 125.515 184.815 125.774 185.309 126.172Z" fill="#2D93AD"/>
<path fill-rule="evenodd" clip-rule="evenodd" d="M173.397 114.567C171.924 115.41 170.436 115.59 168.888 115.485C164.471 115.187 160.965 113.068 157.922 110.015C157.829 109.923 157.704 109.819 157.755 109.684C157.813 109.524 157.984 109.608 158.1 109.609C161.049 109.614 163.753 110.353 166.067 112.269C166.548 112.666 167.05 113.04 167.549 113.415C169.073 114.559 170.773 114.96 172.647 114.599C172.862 114.559 173.075 114.54 173.397 114.567Z" fill="#2D93AD"/>
</g>
<rect x="215.481" y="257.462" width="83.6917" height="83.6917" rx="7.5" fill="#151515" stroke="#1F1F1F"/>
<g clip-path="url(#clip3_3_2)">
<path d="M257.327 269.474C240.871 269.474 227.492 282.853 227.492 299.308C227.492 315.764 240.871 329.143 257.327 329.143C273.783 329.143 287.162 315.764 287.162 299.308C287.162 282.853 273.783 269.474 257.327 269.474ZM272.571 322.803L250.055 288.959H246.885V312.314H250.055V295.253L270.659 323.922C266.697 326.066 262.175 327.278 257.327 327.278C241.85 327.325 229.311 314.785 229.311 299.308C229.311 283.832 241.85 271.292 257.327 271.292C272.804 271.292 285.344 283.832 285.344 299.308C285.344 309.144 280.262 317.815 272.571 322.803Z" fill="#2D93AD"/>
<path d="M264.133 303.644L267.629 308.911V288.959H264.133V303.644Z" fill="#2D93AD"/>
</g>
<g clip-path="url(#clip4_3_2)">
<path opacity="0.2" d="M705.442 485.232V321.423H705.999V319.614H705.442V155.806C705.432 115.633 688.674 77.0391 658.713 48.1847V45.2125H705.442V43.3919H660.067L703.637 2.52329L702.309 1.28485L658.753 42.1535V2.16414H656.815V43.3919H653.522C623.038 16.2063 582.497 1.02396 540.325 1H186.104C143.949 1.03669 103.43 16.2181 72.959 43.3919H69.6536V2.16414H67.7287V42.1163L24.1728 1.24769L22.8452 2.48613L66.4011 43.3547H23.7612V45.1629H67.7287V48.1847C37.7639 77.0369 21.006 115.632 21 155.806V485.232C21.006 525.404 37.7639 564 67.7287 592.852V595.874H23.7612V597.682H66.3612L22.8054 638.551L24.1329 639.789L67.6888 598.921V638.873H69.6138V597.645H72.9192C103.4 624.828 143.936 640.01 186.104 640.037H540.325C582.483 640.003 623.008 624.822 653.483 597.645H656.775V638.873H658.713V598.921L702.269 639.789L703.596 638.551L660.028 597.682H705.999V595.874H658.713V592.852C688.667 563.993 705.423 525.403 705.442 485.232ZM703.504 485.232C703.5 524.283 687.473 561.852 658.713 590.226V435.012H702.813V433.217H658.713V321.423H703.504V485.232ZM484.742 433.217L483.414 431.978C485.618 429.89 487.755 427.742 489.826 425.538V433.217H484.742ZM489.826 435.025V437.985L486.667 435.025H489.826ZM237.717 433.217V426.715C239.443 428.51 241.222 430.257 243.028 431.978L241.7 433.217H237.717ZM239.775 435.025L237.717 436.932V435.012L239.775 435.025ZM241.7 207.82L243.028 209.059C241.222 210.779 239.443 212.539 237.717 214.322V207.82H241.7ZM237.717 206.012V204.105L239.775 206.024L237.717 206.012ZM489.826 207.82V215.498C487.755 213.294 485.618 211.147 483.414 209.059L484.742 207.82H489.826ZM486.667 206.012L489.826 203.052V206.012H486.667ZM489.826 319.602H485.286C485.084 289.889 472.508 261.414 450.213 240.193L482.073 210.346C484.729 212.881 487.322 215.511 489.853 218.235L489.826 319.602ZM491.751 220.378C516.512 248.296 530.119 283.366 530.249 319.602H491.751V220.378ZM448.845 241.431C470.79 262.302 483.169 290.319 483.362 319.553H365.544L448.845 241.431ZM364.19 318.215V207.82C395.42 208.023 425.32 219.637 447.479 240.169L364.19 318.215ZM362.252 318.215L278.95 240.082C301.133 219.587 331.033 208.008 362.252 207.82V318.215ZM360.924 319.453H243.08C243.28 290.22 255.658 262.207 277.595 241.332L360.924 319.453ZM360.924 321.262L277.622 399.382C255.685 378.509 243.307 350.494 243.107 321.262H360.924ZM362.252 322.5V433.217C331.016 433.013 301.11 421.394 278.95 400.857L362.252 322.5ZM364.19 322.5L447.479 400.621C425.366 421.247 395.459 432.952 364.19 433.217V322.5ZM365.518 321.262H483.321C483.128 350.496 470.75 378.512 448.806 399.382L365.518 321.262ZM480.679 209.059L448.82 238.917C431.332 222.733 408.984 211.887 384.74 207.82H479.326L480.679 209.059ZM364.19 206.012V163.818C406.262 164.01 446.686 179.095 477.295 206.024L364.19 206.012ZM362.252 206.012H249.147C279.749 179.075 320.178 163.989 362.252 163.805V206.012ZM341.688 207.82C317.437 211.888 295.08 222.733 277.583 238.917L245.722 209.059L247.05 207.82H341.688ZM244.395 210.297L276.255 240.143C253.951 261.358 241.371 289.837 241.182 319.553H237.744V217.059C239.881 214.768 242.098 212.526 244.395 210.359V210.297ZM235.793 319.553H196.139C196.288 282.762 210.327 247.196 235.793 219.102V319.553ZM235.793 321.361V421.811C210.327 393.717 196.288 358.152 196.139 321.361H235.793ZM237.717 321.361H241.155C241.342 351.072 253.922 379.549 276.229 400.758L244.368 430.616C242.071 428.449 239.854 426.207 237.73 423.916L237.717 321.361ZM245.763 431.978L277.622 402.119C295.11 418.298 317.45 429.142 341.688 433.217H247.116L245.763 431.978ZM362.252 435.025V477.231C320.178 477.047 279.749 461.962 249.147 435.025H362.252ZM364.19 435.025H477.295C446.686 461.954 406.262 477.039 364.19 477.231V435.025ZM384.74 433.217C408.994 429.154 431.351 418.309 448.845 402.119L480.706 431.978L479.379 433.217H384.74ZM482.047 430.74L450.187 400.881C472.484 379.667 485.062 351.195 485.26 321.484H489.8V422.851C487.322 425.526 484.738 428.155 482.047 430.74ZM491.751 321.484H530.249C530.119 357.72 516.512 392.79 491.751 420.708V321.484ZM532.227 319.677C532.079 282.276 517.74 246.132 491.751 217.653V207.82H593.837C613.054 242.359 623.127 280.688 623.215 319.602L532.227 319.677ZM491.751 206.086V201.306L547.745 148.808C565.678 165.752 580.862 185.049 592.815 206.086H491.751ZM491.751 198.754V108.522C511.721 119.197 530.089 132.289 546.379 147.458L491.751 198.754ZM489.826 200.563L483.946 206.086H480.109C449.002 178.005 407.475 162.211 364.19 161.998V76.6936C408.202 76.7838 451.457 87.3919 489.826 107.507V200.563ZM362.252 161.998C318.977 162.189 277.451 177.956 246.333 206.012H242.496L237.717 201.529V106.912C275.82 87.171 318.668 76.7699 362.252 76.6813V161.998ZM235.793 199.733L180.037 147.458C196.636 132.011 215.39 118.719 235.793 107.94V199.733ZM235.793 202.297V206.012H133.573C145.522 184.972 160.707 165.674 178.643 148.734L235.793 202.297ZM235.793 207.833V216.378C209.117 245.03 194.358 281.665 194.201 319.614H103.226C103.312 280.696 113.386 242.363 132.604 207.82L235.793 207.833ZM194.201 321.423C194.358 359.372 209.117 396.008 235.793 424.659V433.217H132.604C113.388 398.678 103.315 360.349 103.226 321.435L194.201 321.423ZM235.793 435.012V438.728L178.709 492.266C160.773 475.325 145.59 456.028 133.64 434.987L235.793 435.012ZM235.793 441.304V533.097C215.39 522.318 196.636 509.025 180.037 493.579L235.793 441.304ZM237.717 439.495L242.496 435.012H246.333C277.449 463.073 318.975 478.845 362.252 479.04V564.368C318.668 564.269 275.821 553.864 237.717 534.125V439.495ZM364.19 479.04C407.465 478.846 448.99 463.079 480.109 435.025H483.946L489.826 440.548V533.531C451.455 553.643 408.202 564.255 364.19 564.356V479.04ZM491.751 442.357L546.379 493.591C530.083 508.754 511.716 521.846 491.751 532.527V442.357ZM491.751 439.805V435.025H592.815C580.862 456.063 565.678 475.359 547.745 492.303L491.751 439.805ZM491.751 433.217V423.458C517.74 394.979 532.079 358.836 532.227 321.435H623.215C623.127 360.349 613.054 398.678 593.837 433.217H491.751ZM625.14 321.435H656.775V433.217H596.014C615.075 398.63 625.058 360.313 625.14 321.423V321.435ZM625.14 319.627C625.06 280.732 615.077 242.412 596.014 207.82H656.775V319.602L625.14 319.627ZM594.992 206.037C582.876 184.513 567.415 164.777 549.113 147.471L655.553 47.6893L655.646 47.7636C656.045 48.1475 656.443 48.5562 656.841 49.002V206.024L594.992 206.037ZM654.094 46.4385L547.745 146.183C531.072 130.657 512.239 117.29 491.751 106.441V45.2001H652.712L654.094 46.4385ZM489.826 105.438C451.397 85.4913 408.167 74.9745 364.19 74.8731V45.1505H489.826V105.438ZM364.19 43.3919V2.80812H489.826V43.3919H364.19ZM362.252 43.3919H237.717V2.80812H362.252V43.3919ZM362.252 45.2001V74.9227C318.703 75.0178 275.878 85.3282 237.717 104.905V45.2001H362.252ZM235.793 105.884C214.882 116.827 195.675 130.391 178.709 146.195L72.3617 46.4509L73.6892 45.2125H235.793V105.884ZM70.8616 47.7636L70.9412 47.6893L177.329 147.458C159.018 164.761 143.553 184.497 131.437 206.024H69.6536V48.9526C70.1182 48.5562 70.4501 48.1475 70.8616 47.7636ZM130.428 207.82C111.369 242.404 101.387 280.716 101.302 319.602H69.6536V207.82H130.428ZM101.302 321.41C101.383 360.305 111.365 398.626 130.428 433.217H69.6536V321.423L101.302 321.41ZM131.437 435C143.553 456.527 159.018 476.263 177.329 493.566L70.9412 593.347L70.8616 593.273C70.4501 592.889 70.0651 592.48 69.6536 592.035V435.012L131.437 435ZM72.3484 594.599L178.695 494.854C195.666 510.659 214.87 524.226 235.78 535.178V595.861H73.729L72.3484 594.599ZM237.717 536.182C275.878 555.758 318.703 566.069 362.252 566.163V595.886H237.717V536.182ZM362.252 597.645V638.228H237.717V597.645H362.252ZM364.19 597.645H489.826V638.228H364.19V597.645ZM364.19 595.837V566.114C408.167 566.013 451.397 555.496 489.826 535.549V595.787L364.19 595.837ZM491.751 534.595C512.239 523.746 531.072 510.38 547.745 494.854L654.094 594.599L652.766 595.837H491.751V534.595ZM655.553 593.273L655.461 593.347L549.087 493.579C567.39 476.272 582.85 456.537 594.966 435.012H656.748V592.085L655.553 593.273ZM703.504 155.806V319.614H658.713V207.82H702.813V206.012H658.713V50.8473C687.464 79.2129 703.49 116.767 703.504 155.806ZM650.695 43.3547H491.751V2.80812H540.325C581.291 2.83635 620.726 17.3368 650.695 43.3919V43.3547ZM186.063 2.77097H235.793V43.3547H75.7469C105.718 17.3149 145.147 2.82815 186.104 2.80812L186.063 2.77097ZM22.9249 485.232V155.806C22.9332 116.752 38.9645 79.1839 67.7287 50.8102V205.987H23.655V207.82H67.7287V319.602H23.4957V321.41H67.7287V433.217H23.655V435.025H67.7287V590.202C38.9708 561.834 22.94 524.276 22.9249 485.232ZM75.7469 597.682H235.793V638.266H186.104C145.137 638.225 105.706 623.712 75.7469 597.645V597.682ZM540.379 638.266H491.751V597.645H650.695C620.724 623.698 581.291 638.198 540.325 638.228L540.379 638.266Z" fill="url(#paint0_radial_3_2)"/>
</g>
<defs>
<radialGradient id="paint0_radial_3_2" cx="0" cy="0" r="1" gradientUnits="userSpaceOnUse" gradientTransform="translate(363.5 320.519) rotate(90) scale(336.61 360.821)">
<stop stop-color="white"/>
<stop offset="1" stop-color="white" stop-opacity="0"/>
</radialGradient>
<clipPath id="clip0_3_2">
<rect width="57.7444" height="56.782" fill="white" transform="translate(393.989 40.4211)"/>
</clipPath>
<clipPath id="clip1_3_2">
<rect width="61.594" height="61.594" fill="white" transform="translate(78.3195 384.962)"/>
</clipPath>
<clipPath id="clip2_3_2">
<rect width="65.4436" height="65.4436" fill="white" transform="translate(130.289 93.3534)"/>
</clipPath>
<clipPath id="clip3_3_2">
<rect width="59.6692" height="59.6692" fill="white" transform="translate(227.492 269.474)"/>
</clipPath>
<clipPath id="clip4_3_2">
<rect width="685" height="640" fill="white"/>
</clipPath>
</defs>
</svg>
